<?xml version="1.0" standalone="no"?><!DOCTYPE svg PUBLIC "-//W3C//DTD SVG 1.1//EN" "http://www.w3.org/Graphics/SVG/1.1/DTD/svg11.dtd"><svg t="1607479652127" class="icon" viewBox="0 0 1024 1024" version="1.1" xmlns="http://www.w3.org/2000/svg" p-id="4744" xmlns:xlink="http://www.w3.org/1999/xlink" width="128" height="128"><defs><style type="text/css"></style></defs><path d="M532.53333369 457.066667l-27.333334-27.466667-21.333333-21.333333c-6.8-6.8-11.466667-11.866667-14.266667-15.2-5.466667-4.8-12.533333-8.666667-21.333333-11.733334-8.8-3.066667-16.266667-1.2-22.266667 5.6-5.466667 7.466667-6.8 14.666667-4 21.866667 2.666667 7.066667 5.733333 12.666667 9.2 16.8l15.2 14.266667c7.466667 8.133333 15.6 16.933333 24.4 26.4 10.133333 10.8 21.333333 22.266667 33.466667 34.533333l-1.066667 21.333333h-69.066666c-6.133333 0-11.333333 2.4-15.733334 7.066667-4.4 4.666667-6.533333 9.866667-6.533333 15.2 0 5.466667 2 10.133333 6.133333 14.266667 4 4 9.466667 6.133333 16.266667 6.133333h69.066667v35.466667h-69.066667c-6.133333 0-11.333333 1.866667-15.733333 5.6-4.4 3.733333-6.533333 8.666667-6.533334 14.666666-0.666667 5.466667 1.2 10 5.6 13.733334 4.4 3.733333 10 5.6 16.8 5.6h69.066667V660c0.666667 9.466667 3.733333 16 9.066667 19.733333 5.466667 3.733333 12.133333 5.6 20.266666 5.6 8.133333 0.666667 14.666667-1.866667 19.733334-7.6 5.066667-5.733333 7.6-11.733333 7.6-17.733333v-20.266667h71.066666c6.8 0 12.4-1.466667 16.8-4.533333 4.4-3.066667 6.266667-8 5.6-14.666667 0-14.266667-9.466667-21.333333-28.4-21.333333h-64.933333l1.066667-34.533333 66-1.066667c9.466667 0.666667 16.266667-1.2 20.266666-5.6 4-4.4 6.133333-9.6 6.133334-15.733333 0-5.466667-2.133333-10.266667-6.533334-14.666667-4.4-4.4-11.333333-6.533333-20.8-6.533333h-66v-19.333334c11.466667-10.8 22-21.333333 31.466667-31.466666 8.133333-8.133333 16.266667-16.4 24.4-24.8 8.133333-8.4 14.266667-14.4 18.266667-17.733334 15.6-13.466667 18.933333-25.333333 10.133333-35.466666-4.8-6.133333-10.8-9.066667-18.266667-9.066667s-14.266667 2.666667-20.266666 8.133333c-3.333333 2.666667-9.2 7.6-17.2 14.666667-8.133333 7.066667-16.266667 14.4-24.4 21.866667-10 8.533333-20.533333 18.4-32 29.2z" fill="" p-id="4745"></path><path d="M530.39999969 990.533333c-55.2 0-104.933333-8-147.866666-23.866666-42.933333-15.866667-80-36.8-110-62.266667-30.133333-25.466667-54.4-54.533333-72.266667-86.266667-17.733333-31.6-29.6-63.6-35.333333-94.933333-6.4-34.8-7.2-68.666667-2.666667-100.8 4.533333-31.733333 13.066667-62 25.066667-90 12-27.866667 27.2-53.866667 45.2-77.2 17.733333-23.066667 37.466667-44 58.533333-62.266667 17.333333-15.333333 33.2-30 47.066667-43.6 13.733333-13.333333 25.2-25.733333 34.266666-36.666666l0.4-0.533334c11.2-12.533333 21.2-24.4 29.6-35.6l5.066667-6.533333h244.933333l5.066667 6.666667c7.733333 10.266667 17.6 21.733333 29.2 34l0.4 0.4c9.733333 11.066667 22.133333 24 36.666667 38.133333 14.533333 14.133333 31.6 29.333333 50.8 45.2l0.4 0.266667c16.666667 14.533333 34 32 51.733333 51.6 18.133333 20.266667 34.133333 44.266667 47.6 71.2 13.6 27.2 23.2 58.666667 28.4 93.733333 5.333333 35.066667 4.4 74.533333-2.533333 117.333333v0.266667c-6.4 35.6-19.2 69.733333-38.133334 101.466667-18.933333 31.866667-44.533333 60-75.866666 83.466666-31.066667 23.333333-68.4 42.133333-110.933334 55.866667-42.533333 14-91.2 20.933333-144.8 20.933333z m-132.533333-656.266666c-9.733333 11.866667-22.133333 25.066667-36.533333 39.066666-14.266667 14-30.533333 29.066667-48.266667 44.666667l-0.133333 0.133333c-19.333333 16.8-37.6 36.133333-54 57.466667-16.266667 21.066667-30.133333 44.666667-41.066667 70-10.933333 25.2-18.533333 52.666667-22.666667 81.6-4.133333 28.533333-3.333333 58.8 2.4 90 5.066667 27.866667 15.733333 56.266667 31.6 84.666667 15.866667 28.266667 37.6 54.133333 64.8 77.2 27.066667 22.933333 60.8 42 100 56.4 39.2 14.533333 85.066667 21.866667 136.266667 21.866666 50.133333 0 95.333333-6.4 134.4-18.933333 38.933333-12.533333 73.066667-29.6 101.2-50.8 27.866667-20.933333 50.533333-45.733333 67.2-73.866667 16.8-28.266667 28.266667-58.533333 33.866667-90.266666 6.4-39.333333 7.333333-75.2 2.533333-106.8-4.8-31.6-13.333333-59.733333-25.333333-83.866667-12.133333-24.266667-26.533333-45.733333-42.666667-63.866667-16.666667-18.666667-33.066667-34.933333-48.666667-48.666666-19.866667-16.4-37.466667-32.133333-52.666666-46.933334-15.066667-14.666667-27.866667-28.133333-38.266667-39.733333-10-10.666667-18.8-20.666667-26.4-30.133333h-212c-7.333333 9.733333-16 20.133333-25.6 30.8zM642.53333369 256.8H414.26666669l-4.8-8.266667c-4.666667-8-9.333333-15.6-13.866667-22.8l-0.266666-0.4c-3.866667-6.4-8-12.933333-12.533334-19.333333-4.8-6.933333-9.066667-13.2-12.533333-18.8-6-8.933333-12.8-16.933333-20.133333-23.733333-7.866667-7.333333-15.733333-13.866667-23.333334-19.6-11.733333-8.133333-19.866667-19.333333-24.4-33.2-5.6-17.333333-0.4-33.333333 14.666667-45.066667l0.666667-0.4c8-5.733333 17.6-8.133333 27.733333-7.066667 7.066667 0.8 14.533333 2.4 22.266667 4.666667 6.666667 2 13.466667 4.133333 20 6.133333 3.466667 1.066667 6.4 1.333333 8.666666 0.8l0.533334-0.133333c6-1.333333 10.266667-3.2 12.666666-5.733333 5.733333-6.133333 14.666667-13.066667 27.466667-21.466667l0.266667-0.266667c12.266667-7.466667 25.866667-10.133333 40.8-7.866666 14.4 2.266667 25.6 7.466667 33.6 15.333333l0.666666 0.666667 0.533334 0.666666c1.866667 2.4 3.866667 4.266667 5.866666 5.866667 2.533333 2 5.2 3.866667 8 5.466667l0.933334 0.533333 0.933333 0.666667c0.266667 0.266667 0.666667 0.533333 1.066667 0.8 2.266667-2 5.333333-4.666667 9.333333-8.666667l0.533333-0.533333c9.466667-8.666667 19.333333-15.2 29.2-19.333334 12.266667-5.066667 26.8-4.266667 44.4 2.666667 8.8 2.8 16.266667 6.8 22 12.133333 4 3.733333 7.866667 7.2 11.6 10.666667 2.666667 2.4 5.733333 4.533333 8.8 6.266667 1.066667 0.533333 3.733333 1.6 8.8 1.6 4.4 0 8.133333-0.533333 10.666667-1.733334 4.8-2.133333 9.6-4 14.266667-5.866666 5.466667-2.133333 11.066667-3.6 16.666666-4.533334 7.066667-1.066667 14.8-0.266667 23.466667 2.666667l0.933333 0.4c10.8 4.266667 18.4 11.066667 22.666667 20.133333 3.866667 8.266667 4.933333 16.933333 3.333333 25.866667-1.466667 7.733333-4.666667 15.333333-9.733333 22.666667-4.933333 7.2-11.2 13.333333-18.533333 17.866666-11.2 7.066667-19.733333 14.133333-25.333334 21.2-6.533333 8.133333-13.066667 16.933333-19.733333 26.133334-3.333333 4.666667-6.933333 10-10.8 15.733333-3.733333 5.733333-7.333333 11.466667-10.4 17.066667-4.266667 7.866667-9.066667 15.6-14.133333 22.8l-5.2 7.333333z m-209.2-33.333333h191.733333c2.666667-4.133333 5.066667-8.266667 7.466667-12.666667 3.6-6.533333 7.6-13.066667 11.866666-19.466667 4.133333-6.133333 8-11.733333 11.466667-16.666666 6.933333-9.733333 14-19.066667 20.8-27.6 8-10 18.933333-19.333333 33.6-28.533334 3.6-2.266667 6.4-5.066667 8.8-8.533333 2.4-3.466667 3.866667-6.8 4.4-9.866667 0.4-2 0.133333-3.733333-0.8-5.6-0.4-0.933333-2-2.133333-4.4-3.066666-4.666667-1.466667-6.8-1.333333-7.466667-1.2-3.2 0.533333-6.533333 1.333333-9.733333 2.666666-4.266667 1.6-8.666667 3.466667-13.066667 5.333334-6.8 2.933333-14.8 4.4-23.866666 4.4-9.466667 0-17.866667-1.866667-24.666667-5.6-5.6-2.933333-10.8-6.666667-15.466667-10.933334-3.733333-3.466667-7.6-6.933333-11.733333-10.666666-2.133333-2-5.466667-3.733333-9.733333-4.933334l-1.333334-0.533333c-12.666667-5.066667-18.133333-3.866667-19.866666-3.066667-6.133333 2.533333-12.666667 6.933333-19.2 12.933334-7.466667 7.466667-13.6 12.8-18.533334 16-4.933333 3.2-9.6 4.8-14.266666 4.8h-3.866667l-3.466667-1.733334c-4.8-2.4-9.2-5.2-13.2-8.266666-3.6-2.133333-7.066667-4.666667-10.4-7.2-3.733333-2.933333-7.333333-6.4-10.666666-10.4-2.933333-2.533333-8-4.4-14.666667-5.466667-6.933333-1.066667-12.533333 0-18 3.2-12.666667 8.266667-18.533333 13.333333-21.066667 16-7.066667 7.6-17.066667 12.8-29.733333 15.466667-8.266667 2-17.2 1.6-26.533333-1.333334-6.4-2-13.066667-4-19.6-6-5.733333-1.733333-11.2-2.933333-16.4-3.466666-2.133333-0.266667-3.333333 0.133333-4.4 0.933333-4.666667 3.866667-4 5.866667-3.2 8.4 2.266667 6.933333 6.133333 12.266667 11.866666 16.266667l0.533334 0.4c8.533333 6.4 17.333333 13.733333 26.133333 21.866666 9.333333 8.666667 18 18.666667 25.466667 29.866667l0.266666 0.4c3.2 5.066667 7.2 11.066667 11.733334 17.6 4.933333 7.066667 9.466667 14.133333 13.733333 21.066667 3.066667 4.666667 6.266667 9.866667 9.466667 15.2z" fill="" p-id="4746"></path><path d="M181.33333369 720l710.666666 4s-2.666667 148-222.666666 230.666667c0 0-389.333333 97.333333-488-234.666667z" fill="" p-id="4747"></path></svg>